<mxfile host="app.diagrams.net" agent="Mozilla/5.0 (Macintosh; Intel Mac OS X 10_15_7) AppleWebKit/537.36 (KHTML, like Gecko) Chrome/130.0.0.0 Safari/537.36" version="24.8.4">
  <diagram name="第 1 页" id="uhmFyfoN9ljbLSEEztwm">
    <mxGraphModel dx="1434" dy="679" grid="1" gridSize="10" guides="1" tooltips="1" connect="1" arrows="1" fold="1" page="1" pageScale="1" pageWidth="827" pageHeight="1169" math="0" shadow="0">
      <root>
        <mxCell id="0" />
        <mxCell id="1" parent="0" />
        <mxCell id="NTRFKImxgImTVGHLN-d3-24" value="" style="rounded=0;whiteSpace=wrap;html=1;fillColor=#fff2cc;strokeColor=#d6b656;dashed=1;dashPattern=1 4;" vertex="1" parent="1">
          <mxGeometry x="13" y="490" width="720" height="140" as="geometry" />
        </mxCell>
        <mxCell id="NTRFKImxgImTVGHLN-d3-21" value="" style="rounded=0;whiteSpace=wrap;html=1;fillColor=#dae8fc;strokeColor=#6c8ebf;dashed=1;dashPattern=1 4;" vertex="1" parent="1">
          <mxGeometry x="13" y="127.5" width="720" height="155" as="geometry" />
        </mxCell>
        <mxCell id="NTRFKImxgImTVGHLN-d3-9" style="edgeStyle=orthogonalEdgeStyle;rounded=0;orthogonalLoop=1;jettySize=auto;html=1;exitX=0.5;exitY=1;exitDx=0;exitDy=0;shape=flexArrow;fillColor=#f8cecc;strokeColor=#b85450;" edge="1" parent="1" source="NTRFKImxgImTVGHLN-d3-2" target="NTRFKImxgImTVGHLN-d3-6">
          <mxGeometry relative="1" as="geometry" />
        </mxCell>
        <mxCell id="NTRFKImxgImTVGHLN-d3-2" value="&lt;font style=&quot;font-size: 25px;&quot;&gt;master&lt;/font&gt;" style="rounded=1;whiteSpace=wrap;html=1;" vertex="1" parent="1">
          <mxGeometry x="40" y="170" width="200" height="90" as="geometry" />
        </mxCell>
        <mxCell id="NTRFKImxgImTVGHLN-d3-15" style="edgeStyle=orthogonalEdgeStyle;rounded=0;orthogonalLoop=1;jettySize=auto;html=1;entryX=1;entryY=0.5;entryDx=0;entryDy=0;shape=flexArrow;fillColor=#f8cecc;strokeColor=#b85450;" edge="1" parent="1" source="NTRFKImxgImTVGHLN-d3-3" target="NTRFKImxgImTVGHLN-d3-2">
          <mxGeometry relative="1" as="geometry" />
        </mxCell>
        <mxCell id="NTRFKImxgImTVGHLN-d3-3" value="&lt;font style=&quot;font-size: 25px;&quot;&gt;dev&lt;/font&gt;" style="rounded=1;whiteSpace=wrap;html=1;" vertex="1" parent="1">
          <mxGeometry x="500" y="170" width="200" height="90" as="geometry" />
        </mxCell>
        <mxCell id="NTRFKImxgImTVGHLN-d3-16" style="edgeStyle=orthogonalEdgeStyle;rounded=0;orthogonalLoop=1;jettySize=auto;html=1;entryX=0;entryY=0.5;entryDx=0;entryDy=0;shape=flexArrow;fillColor=#f8cecc;strokeColor=#b85450;" edge="1" parent="1">
          <mxGeometry relative="1" as="geometry">
            <mxPoint x="240" y="560" as="sourcePoint" />
            <mxPoint x="500" y="560" as="targetPoint" />
          </mxGeometry>
        </mxCell>
        <mxCell id="NTRFKImxgImTVGHLN-d3-6" value="&lt;font style=&quot;font-size: 25px;&quot;&gt;master&lt;/font&gt;" style="rounded=1;whiteSpace=wrap;html=1;" vertex="1" parent="1">
          <mxGeometry x="40" y="510" width="200" height="90" as="geometry" />
        </mxCell>
        <mxCell id="NTRFKImxgImTVGHLN-d3-17" style="edgeStyle=orthogonalEdgeStyle;rounded=0;orthogonalLoop=1;jettySize=auto;html=1;entryX=0.5;entryY=1;entryDx=0;entryDy=0;shape=arrow;fillColor=#f8cecc;strokeColor=#b85450;" edge="1" parent="1" source="NTRFKImxgImTVGHLN-d3-7" target="NTRFKImxgImTVGHLN-d3-3">
          <mxGeometry relative="1" as="geometry" />
        </mxCell>
        <mxCell id="NTRFKImxgImTVGHLN-d3-7" value="&lt;font style=&quot;font-size: 25px;&quot;&gt;dev&lt;/font&gt;" style="rounded=1;whiteSpace=wrap;html=1;" vertex="1" parent="1">
          <mxGeometry x="500" y="510" width="200" height="90" as="geometry" />
        </mxCell>
        <mxCell id="NTRFKImxgImTVGHLN-d3-10" value="&lt;font style=&quot;font-size: 16px;&quot;&gt;git pull&lt;/font&gt;" style="text;html=1;align=center;verticalAlign=middle;whiteSpace=wrap;rounded=0;" vertex="1" parent="1">
          <mxGeometry x="150" y="370" width="50" height="30" as="geometry" />
        </mxCell>
        <mxCell id="NTRFKImxgImTVGHLN-d3-11" value="" style="endArrow=classic;html=1;rounded=0;exitX=1;exitY=1;exitDx=0;exitDy=0;entryX=0;entryY=0;entryDx=0;entryDy=0;" edge="1" parent="1" source="NTRFKImxgImTVGHLN-d3-2" target="NTRFKImxgImTVGHLN-d3-7">
          <mxGeometry width="50" height="50" relative="1" as="geometry">
            <mxPoint x="270" y="340" as="sourcePoint" />
            <mxPoint x="320" y="290" as="targetPoint" />
          </mxGeometry>
        </mxCell>
        <mxCell id="NTRFKImxgImTVGHLN-d3-12" value="&lt;font style=&quot;font-size: 16px;&quot;&gt;&lt;b&gt;git pull origin master&lt;/b&gt;&lt;/font&gt;" style="text;html=1;align=center;verticalAlign=middle;whiteSpace=wrap;rounded=0;rotation=45;" vertex="1" parent="1">
          <mxGeometry x="280" y="360" width="206" height="30" as="geometry" />
        </mxCell>
        <mxCell id="NTRFKImxgImTVGHLN-d3-14" value="&lt;font style=&quot;font-size: 16px;&quot;&gt;上线人员合并&lt;/font&gt;" style="text;html=1;align=center;verticalAlign=middle;whiteSpace=wrap;rounded=0;" vertex="1" parent="1">
          <mxGeometry x="302" y="185" width="130" height="30" as="geometry" />
        </mxCell>
        <mxCell id="NTRFKImxgImTVGHLN-d3-18" value="&lt;font style=&quot;font-size: 16px;&quot;&gt;git push origin dev&lt;/font&gt;" style="text;html=1;align=center;verticalAlign=middle;whiteSpace=wrap;rounded=0;rotation=90;" vertex="1" parent="1">
          <mxGeometry x="530" y="370" width="180" height="30" as="geometry" />
        </mxCell>
        <mxCell id="NTRFKImxgImTVGHLN-d3-19" value="&lt;font style=&quot;font-size: 16px;&quot;&gt;git merge master&lt;/font&gt;" style="text;html=1;align=center;verticalAlign=middle;whiteSpace=wrap;rounded=0;" vertex="1" parent="1">
          <mxGeometry x="284" y="530" width="160" height="30" as="geometry" />
        </mxCell>
        <mxCell id="NTRFKImxgImTVGHLN-d3-22" value="&lt;font style=&quot;font-size: 16px;&quot;&gt;&lt;b&gt;远程仓库&lt;/b&gt;&lt;/font&gt;" style="text;html=1;align=center;verticalAlign=middle;whiteSpace=wrap;rounded=0;" vertex="1" parent="1">
          <mxGeometry x="600" y="130" width="150" height="30" as="geometry" />
        </mxCell>
        <mxCell id="NTRFKImxgImTVGHLN-d3-25" value="&lt;font style=&quot;font-size: 16px;&quot;&gt;&lt;b&gt;本地&lt;/b&gt;&lt;/font&gt;" style="text;html=1;align=center;verticalAlign=middle;whiteSpace=wrap;rounded=0;" vertex="1" parent="1">
          <mxGeometry x="660" y="600" width="70" height="30" as="geometry" />
        </mxCell>
      </root>
    </mxGraphModel>
  </diagram>
</mxfile>
